<svg width="112" height="34" viewBox="0 0 112 34" fill="none" xmlns="http://www.w3.org/2000/svg">
<g clip-path="url(#clip0_760_2)">
<path d="M3.5443 0.5H108.456C110.112 0.5 111.5 1.92617 111.5 3.74388V30.2561C111.5 32.0738 110.112 33.5 108.456 33.5H3.5443C1.88844 33.5 0.5 32.0738 0.5 30.2561V3.74388C0.5 1.92617 1.88844 0.5 3.5443 0.5Z" stroke="#444444" stroke-opacity="0.6"/>
<path d="M42.7539 18.4137H38.8346L37.8752 21.0275H36.1523L39.9901 11.2656H41.6181L45.5444 21.0246H43.7338L42.7539 18.4137ZM39.3283 17.0865H42.2541L41.2061 14.2906C41.0623 13.9043 40.9207 13.4777 40.7815 13.0108C40.6552 13.4239 40.5179 13.846 40.3696 14.2772L39.3283 17.0865Z" fill="#444444" fill-opacity="0.6"/>
<path d="M46.3214 15.5353C46.3214 14.996 46.3036 14.4032 46.2676 13.7566H47.8351C47.894 14.0617 47.9346 14.37 47.9569 14.68C48.2298 14.3535 48.5704 14.0899 48.9554 13.9072C49.3403 13.7245 49.7603 13.627 50.1865 13.6214C50.6868 13.6135 51.1781 13.7544 51.5975 14.0263C52.017 14.2981 52.3456 14.6885 52.5414 15.1475C52.8173 15.7812 52.9478 16.4684 52.9233 17.1587C52.9439 17.9076 52.7948 18.6514 52.4869 19.3347C52.2272 19.9022 51.8023 20.3788 51.2673 20.7024C50.7177 21.0192 50.0915 21.18 49.4567 21.1671C48.9574 21.1663 48.4618 21.0819 47.9904 20.9176V23.9221L46.3214 24.0633V15.5353ZM50.71 19.2503C51.0887 18.6556 51.2676 17.9559 51.2202 17.253C51.2202 16.44 51.0795 15.8505 50.798 15.4844C50.6691 15.3089 50.4993 15.1673 50.3033 15.0718C50.1074 14.9762 49.8911 14.9295 49.6729 14.9358C49.3585 14.9331 49.0487 15.0118 48.774 15.1645C48.484 15.3292 48.2199 15.5357 47.9904 15.7776V19.6717C48.1756 19.7589 48.3706 19.8233 48.5713 19.8636C48.7867 19.9101 49.0066 19.9338 49.227 19.9342C49.5115 19.9506 49.7957 19.8969 50.0544 19.7777C50.3131 19.6586 50.5385 19.4777 50.7103 19.2511L50.71 19.2503Z" fill="#444444" fill-opacity="0.6"/>
<path d="M53.9952 15.5353C53.9952 14.996 53.9772 14.4032 53.9414 13.7566H55.5088C55.5678 14.0617 55.6084 14.37 55.6306 14.68C55.9037 14.3536 56.2443 14.0899 56.6292 13.9072C57.0141 13.7245 57.434 13.627 57.8603 13.6214C58.3605 13.6135 58.8517 13.7544 59.2712 14.0263C59.6908 14.2981 60.0194 14.6885 60.2153 15.1475C60.491 15.7812 60.6215 16.4684 60.5972 17.1587C60.6177 17.9076 60.4685 18.6514 60.1607 19.3347C59.9012 19.9022 59.4764 20.3788 58.9415 20.7024C58.3917 21.0194 57.7654 21.18 57.1305 21.1671C56.6312 21.1663 56.1356 21.0819 55.6642 20.9176V23.9221L53.9952 24.0633V15.5353ZM58.3837 19.2503C58.7625 18.6556 58.9412 17.9559 58.8941 17.253C58.8941 16.44 58.7532 15.8505 58.4714 15.4844C58.3425 15.3089 58.1729 15.1673 57.9769 15.0718C57.7809 14.9762 57.5645 14.9295 57.3463 14.9358C57.0321 14.9331 56.7224 15.0118 56.4479 15.1645C56.1576 15.3292 55.8936 15.5357 55.6642 15.7776V19.6717C55.8493 19.7589 56.0444 19.8233 56.245 19.8636C56.4605 19.9101 56.6804 19.9338 56.9008 19.9342C57.1853 19.9506 57.4695 19.8969 57.7282 19.7777C57.9869 19.6586 58.2121 19.4777 58.3841 19.2511L58.3837 19.2503Z" fill="#444444" fill-opacity="0.6"/>
<path d="M63.7429 20.5619C63.029 20.1723 62.4493 19.5773 62.0795 18.8544C61.675 18.0384 61.4757 17.1366 61.4987 16.2268C61.4685 15.2532 61.6993 14.2891 62.1672 13.434C62.589 12.6916 63.223 12.0913 63.9885 11.7097C64.7921 11.3175 65.6774 11.12 66.5719 11.1335C67.1146 11.1311 67.6556 11.1933 68.1834 11.3187C68.677 11.436 69.1563 11.6065 69.6128 11.8272L69.1882 13.1073C68.3994 12.7094 67.5311 12.4931 66.6473 12.4743C66.0236 12.4601 65.4071 12.61 64.8598 12.9086C64.3423 13.2047 63.9266 13.6497 63.667 14.1852C63.3676 14.8209 63.2221 15.5178 63.2424 16.2198C63.231 16.8526 63.3424 17.4815 63.5705 18.0723C63.7754 18.5945 64.1363 19.0414 64.6042 19.3524C65.1368 19.6839 65.7571 19.8483 66.3844 19.8241C66.7105 19.8241 67.0361 19.7971 67.3577 19.7433C67.6684 19.6932 67.9737 19.6143 68.2697 19.5076V17.5337H66.0064V16.2406H69.8917V20.3503C69.3281 20.6124 68.738 20.8135 68.1313 20.9501C67.5295 21.0877 66.9141 21.1577 66.2967 21.1585C65.4083 21.1808 64.529 20.9753 63.7429 20.5619Z" fill="#444444" fill-opacity="0.6"/>
<path d="M75.9067 21.0285C75.844 20.7109 75.8057 20.3888 75.7921 20.0653C75.5126 20.3879 75.1714 20.6517 74.7884 20.8415C74.3563 21.0596 73.8776 21.1693 73.3934 21.1615C72.9977 21.1662 72.6061 21.0817 72.2477 20.9146C71.9067 20.7537 71.6209 20.4959 71.4266 20.1736C71.2143 19.8066 71.1089 19.3877 71.1226 18.9644C71.1104 18.6433 71.1731 18.3238 71.3056 18.031C71.438 17.7382 71.6369 17.48 71.8864 17.2767C72.3953 16.8568 73.2447 16.6468 74.4346 16.6468C74.8776 16.6466 75.3202 16.6783 75.7588 16.7415V16.6003C75.7588 15.958 75.6214 15.5056 75.3466 15.2429C75.0199 14.9616 74.5952 14.82 74.1645 14.8486C73.7787 14.8528 73.3951 14.905 73.0224 15.004C72.6556 15.0938 72.298 15.2178 71.9547 15.3744L71.691 14.1617C72.0701 14.0007 72.464 13.8766 72.867 13.7912C73.3726 13.6767 73.8895 13.6201 74.408 13.6226C74.9579 13.6078 75.505 13.7053 76.0158 13.9091C76.4646 14.107 76.8302 14.4547 77.0495 14.8924C77.3234 15.479 77.451 16.1227 77.4215 16.7689V19.6591C77.4215 19.96 77.4395 20.4159 77.4753 21.0267L75.9067 21.0285ZM74.9067 19.681C75.2291 19.533 75.5187 19.3222 75.7581 19.0611V17.7138C75.388 17.6698 75.0158 17.6451 74.6429 17.6398C73.9538 17.6398 73.4774 17.7508 73.2139 17.9728C73.0837 18.0828 72.9804 18.2211 72.9119 18.3769C72.8434 18.5328 72.8115 18.7023 72.8185 18.8723C72.8066 19.018 72.8258 19.1648 72.8755 19.3025C72.925 19.4402 73.0034 19.5658 73.1056 19.6708C73.3229 19.8524 73.601 19.9451 73.8842 19.9301C74.2399 19.9256 74.59 19.8403 74.9077 19.681H74.9067Z" fill="#444444" fill-opacity="0.6"/>
<path d="M78.8828 19.2788V10.6895L80.5462 10.5547V18.9825C80.5248 19.2129 80.5806 19.4438 80.7051 19.6391C80.7688 19.7072 80.8474 19.7599 80.9346 19.7931C81.0219 19.8263 81.1156 19.8393 81.2087 19.831C81.3575 19.8238 81.505 19.799 81.6479 19.757L81.8443 20.9496C81.6575 21.0202 81.4638 21.0711 81.2664 21.1014C81.0533 21.1381 80.8374 21.1572 80.6212 21.1585C79.462 21.1585 78.8825 20.532 78.8828 19.2788Z" fill="#444444" fill-opacity="0.6"/>
<path d="M83.0371 19.2788V10.6895L84.7005 10.5547V18.9825C84.6791 19.2129 84.7349 19.4438 84.8594 19.6391C84.9233 19.7072 85.0017 19.7597 85.089 19.793C85.1762 19.8263 85.2699 19.8393 85.363 19.831C85.5118 19.8238 85.6593 19.799 85.8023 19.757L85.9987 20.9496C85.8118 21.0202 85.6181 21.0711 85.4207 21.1014C85.2076 21.1381 84.9917 21.1572 84.7755 21.1585C83.6163 21.1585 83.0368 20.532 83.0371 19.2788Z" fill="#444444" fill-opacity="0.6"/>
<path d="M92.9152 17.6045H88.1449C88.2216 19.1269 88.9491 19.8883 90.3275 19.8886C90.6815 19.8873 91.0341 19.8454 91.3786 19.7641C91.7312 19.6829 92.0759 19.5712 92.4092 19.4305L92.7737 20.5691C91.9145 20.974 90.9736 21.1768 90.0234 21.1619C89.3435 21.1839 88.6693 21.0332 88.0638 20.7241C87.5409 20.4408 87.121 19.9999 86.8644 19.4644C86.5811 18.8432 86.4437 18.1658 86.4627 17.4835C86.4435 16.7688 86.5887 16.0589 86.8874 15.4088C87.1437 14.8602 87.5561 14.3986 88.0734 14.0817C88.6038 13.7695 89.2109 13.6107 89.8267 13.623C90.4384 13.6009 91.0421 13.7694 91.5535 14.105C92.013 14.4245 92.3696 14.8703 92.5797 15.3884C92.8079 15.9509 92.9216 16.5531 92.9138 17.16L92.9152 17.6045ZM91.2872 16.546C91.2942 16.0743 91.1392 15.6142 90.8481 15.2422C90.716 15.0979 90.5538 14.984 90.373 14.9089C90.1919 14.8339 89.9967 14.7995 89.8008 14.8079C89.6036 14.8028 89.4074 14.8392 89.2251 14.9147C89.043 14.9901 88.8786 15.1029 88.7429 15.2458C88.4288 15.6119 88.2363 16.0662 88.1923 16.546H91.2872Z" fill="#444444" fill-opacity="0.6"/>
<path d="M94.2608 15.5819C94.2608 15.1821 94.2429 14.5734 94.207 13.756H95.7678C95.795 13.9581 95.8205 14.1995 95.8457 14.4803C95.8707 14.7612 95.8874 14.9891 95.8962 15.1642C96.0644 14.881 96.2553 14.6118 96.4672 14.3593C96.6515 14.1437 96.8737 13.9634 97.1229 13.8272C97.3853 13.687 97.6796 13.6161 97.9773 13.6215C98.2008 13.6173 98.4238 13.6445 98.6398 13.7023L98.4303 15.1441C98.2547 15.093 98.0724 15.0682 97.8895 15.0703C97.5246 15.0626 97.1662 15.1675 96.8631 15.3703C96.4974 15.6453 96.1801 15.9793 95.9243 16.3582V21.0264H94.2608V15.5819Z" fill="#444444" fill-opacity="0.6"/>
<path d="M99.6407 23.9975C99.4368 23.9645 99.2356 23.916 99.0391 23.8525L99.3431 22.6401C99.4552 22.6715 99.5975 22.7015 99.7677 22.731C99.9283 22.7593 100.091 22.7739 100.254 22.7748C100.993 22.7748 101.547 22.3009 101.917 21.3532L102.024 21.084L99.3339 13.7539H101.124L102.476 17.8501C102.651 18.3775 102.793 18.9151 102.901 19.4602C103.027 18.9347 103.176 18.4092 103.346 17.8837L104.718 13.7553H106.401L103.718 21.119C103.517 21.7119 103.242 22.2776 102.901 22.8031C102.64 23.2009 102.283 23.5274 101.864 23.7529C101.415 23.9708 100.92 24.0773 100.421 24.0631C100.159 24.0638 99.8984 24.0417 99.6407 23.9975Z" fill="#444444" fill-opacity="0.6"/>
<path fill-rule="evenodd" clip-rule="evenodd" d="M7.80859 12.5145C7.80859 8.08761 9.4327 6.46875 13.8725 6.46875H23.298C27.7378 6.46875 29.3619 8.08761 29.3619 12.5145V21.9116C29.3619 26.338 27.7339 27.9573 23.2947 27.9573H13.8725C9.4327 27.9573 7.80859 26.338 7.80859 21.9116V12.5145ZM16.0496 12.5889C16.7221 13.2595 17.6341 13.6367 18.5853 13.6377C19.5364 13.6367 20.4484 13.2595 21.1209 12.5889C21.7935 11.9183 22.1718 11.0092 22.1729 10.0608H21.6661C21.6661 10.8755 21.3415 11.6567 20.7638 12.2328C20.1859 12.8088 19.4023 13.1324 18.5853 13.1324C17.7682 13.1324 16.9846 12.8088 16.4069 12.2328C15.829 11.6567 15.5045 10.8755 15.5045 10.0608H14.9976C14.9987 11.0092 15.377 11.9183 16.0496 12.5889ZM21.905 19.1461L21.2651 17.2138H20.7983L20.1584 19.1461L19.5358 17.2153H18.9279L19.9099 20.0236H20.3832L21.0241 18.1789L21.6647 20.0236H22.1421L23.1218 17.2153H22.5289L21.905 19.1461ZM25.1865 18.8144H24.1467L24.1481 19.5099H25.71V20.0215H23.5818V17.2157H25.6576V17.7276H24.1481V18.3027H25.1865V18.8144ZM26.3923 20.0201H26.9564V17.2143H26.3923V20.0201ZM16.7424 20.0222L16.999 19.4372H18.2884L18.5414 20.0222H19.1413L17.9046 17.2143H17.4L16.1588 20.0222H16.7424ZM17.2114 18.9305H18.0756L17.642 17.9253L17.2114 18.9305ZM15.2974 18.8225C15.2974 19.2791 15.0698 19.5233 14.6568 19.5233C14.2439 19.5233 14.0128 19.2723 14.0128 18.8031V17.2153H13.4408V18.8219C13.4408 19.6118 13.8811 20.0652 14.6491 20.0652C15.4241 20.0652 15.869 19.6037 15.869 18.7985V17.2136H15.2974V18.8225ZM12.6484 17.2143H12.0768V18.3472H10.7857V17.2138H10.2138V20.0232H10.7857V18.8826H12.0768V20.0236H12.6484V17.2143Z" fill="#444444" fill-opacity="0.6"/>
</g>
<defs>
<clipPath id="clip0_760_2">
<rect width="112" height="34" fill="white"/>
</clipPath>
</defs>
</svg>
