<svg width="112" height="34" viewBox="0 0 112 34" fill="none" xmlns="http://www.w3.org/2000/svg">
<g clip-path="url(#clip0_760_15)">
<path d="M3.5443 0.5H108.456C110.112 0.5 111.5 1.92617 111.5 3.74388V30.2561C111.5 32.0738 110.112 33.5 108.456 33.5H3.5443C1.88844 33.5 0.5 32.0738 0.5 30.2561V3.74388C0.5 1.92617 1.88844 0.5 3.5443 0.5Z" stroke="#444444" stroke-opacity="0.6"/>
<path d="M26.6903 16.9227C26.6667 14.312 28.8343 13.0419 28.9335 12.9828C27.7058 11.1983 25.8031 10.9545 25.1344 10.9351C23.5363 10.7674 21.9862 11.8884 21.172 11.8884C20.3418 11.8884 19.0882 10.9513 17.737 10.9788C15.9984 11.0055 14.3718 12.0091 13.4798 13.5676C11.6387 16.7452 13.0118 21.415 14.7756 23.9835C15.6579 25.2415 16.6889 26.646 18.0385 26.5966C19.3587 26.5424 19.8518 25.7574 21.445 25.7574C23.0237 25.7574 23.4867 26.5966 24.863 26.5651C26.2799 26.5424 27.1721 25.3015 28.0235 24.0321C29.0431 22.5904 29.4526 21.1704 29.4689 21.0975C29.4355 21.0861 26.7171 20.0517 26.6903 16.9227Z" fill="#444444" fill-opacity="0.6"/>
<path d="M24.0893 9.24965C24.7993 8.3643 25.2852 7.15981 25.1504 5.9375C24.1225 5.98286 22.8373 6.64626 22.0971 7.51216C21.4422 8.27519 20.8573 9.52585 21.0084 10.702C22.1629 10.7879 23.3483 10.1212 24.0893 9.24965Z" fill="#444444" fill-opacity="0.6"/>
<path d="M45.7958 21.5414H43.9508L42.9401 18.375H39.427L38.4642 21.5414H36.668L40.1484 10.7617H42.2982L45.7958 21.5414ZM42.6353 17.0467L41.7213 14.2318C41.6246 13.9443 41.4435 13.2671 41.1763 12.2011H41.1438C41.0373 12.6596 40.8659 13.3368 40.6302 14.2318L39.7325 17.0467H42.6353Z" fill="#444444" fill-opacity="0.6"/>
<path d="M54.7462 17.5598C54.7462 18.8817 54.3879 19.9266 53.6713 20.6937C53.0294 21.3766 52.2324 21.7176 51.2809 21.7176C50.254 21.7176 49.5164 21.3499 49.067 20.6144H49.0345V24.709H47.3025V16.3278C47.3025 15.4967 47.2804 14.6437 47.2383 13.7689H48.7615L48.8582 15.0009H48.8907C49.4685 14.0727 50.3451 13.6094 51.5215 13.6094C52.4412 13.6094 53.209 13.9715 53.8231 14.6964C54.439 15.4221 54.7462 16.3764 54.7462 17.5598ZM52.9815 17.623C52.9815 16.8665 52.8108 16.2427 52.4681 15.7518C52.0935 15.2399 51.5906 14.984 50.9601 14.984C50.5327 14.984 50.1443 15.1265 49.7974 15.4076C49.4498 15.6911 49.2223 16.0612 49.1158 16.5197C49.0621 16.7336 49.0354 16.9085 49.0354 17.0462V18.3423C49.0354 18.9076 49.2092 19.3848 49.557 19.7744C49.9048 20.1641 50.3564 20.3584 50.9121 20.3584C51.5646 20.3584 52.0724 20.1072 52.4355 19.6067C52.7994 19.1053 52.9815 18.4444 52.9815 17.623Z" fill="#444444" fill-opacity="0.6"/>
<path d="M63.7122 17.5598C63.7122 18.8817 63.3539 19.9266 62.6365 20.6937C61.9955 21.3766 61.1984 21.7176 60.247 21.7176C59.2202 21.7176 58.4825 21.3499 58.034 20.6144H58.0014V24.709H56.2693V16.3278C56.2693 15.4967 56.2474 14.6437 56.2051 13.7689H57.7285L57.8252 15.0009H57.8577C58.4345 14.0727 59.3111 13.6094 60.4883 13.6094C61.4072 13.6094 62.175 13.9715 62.7909 14.6964C63.4043 15.4221 63.7122 16.3764 63.7122 17.5598ZM61.9475 17.623C61.9475 16.8665 61.7762 16.2427 61.4333 15.7518C61.0587 15.2399 60.5574 14.984 59.9261 14.984C59.4981 14.984 59.1104 15.1265 58.7628 15.4076C58.415 15.6911 58.1883 16.0612 58.0819 16.5197C58.0291 16.7336 58.0014 16.9085 58.0014 17.0462V18.3423C58.0014 18.9076 58.1754 19.3848 58.5215 19.7744C58.8691 20.1632 59.3209 20.3584 59.8782 20.3584C60.5306 20.3584 61.0384 20.1072 61.4016 19.6067C61.7655 19.1053 61.9475 18.4444 61.9475 17.623Z" fill="#444444" fill-opacity="0.6"/>
<path d="M73.7388 18.5122C73.7388 19.4292 73.4195 20.1752 72.7785 20.7512C72.0741 21.3806 71.0935 21.6948 69.8334 21.6948C68.6699 21.6948 67.7372 21.4712 67.0312 21.0234L67.4326 19.5839C68.193 20.0424 69.0273 20.2725 69.9366 20.2725C70.589 20.2725 71.0966 20.125 71.4616 19.8318C71.8246 19.5386 72.0059 19.1449 72.0059 18.654C72.0059 18.2166 71.8564 17.848 71.5565 17.5492C71.2584 17.2502 70.7604 16.9725 70.0649 16.7157C68.1719 16.0117 67.2262 14.9807 67.2262 13.6247C67.2262 12.7385 67.5576 12.0119 68.2214 11.4466C68.8827 10.8804 69.7651 10.5977 70.8684 10.5977C71.8522 10.5977 72.6697 10.7686 73.3221 11.1096L72.889 12.5174C72.2796 12.1869 71.5906 12.0217 70.8197 12.0217C70.2103 12.0217 69.7343 12.1715 69.393 12.4696C69.1046 12.7361 68.96 13.0609 68.96 13.4457C68.96 13.8717 69.1249 14.2241 69.4564 14.5011C69.7448 14.757 70.2688 15.0341 71.0293 15.333C71.9596 15.7065 72.6428 16.143 73.0824 16.6435C73.5202 17.1425 73.7388 17.7671 73.7388 18.5122Z" fill="#444444" fill-opacity="0.6"/>
<path d="M79.4668 15.0649H77.5575V18.8386C77.5575 19.7985 77.8939 20.278 78.5682 20.278C78.8777 20.278 79.1344 20.2514 79.3376 20.1979L79.3855 21.5092C79.0443 21.6365 78.5949 21.7005 78.0385 21.7005C77.3543 21.7005 76.8197 21.4923 76.4338 21.0767C76.0496 20.6604 75.8562 19.9621 75.8562 18.9812V15.0631H74.7188V13.7671H75.8562V12.344L77.5575 11.832V13.7671H79.4668V15.0649Z" fill="#444444" fill-opacity="0.6"/>
<path d="M88.0816 17.5906C88.0816 18.7853 87.7388 19.7663 87.0547 20.5334C86.3373 21.3231 85.385 21.7168 84.198 21.7168C83.0541 21.7168 82.1434 21.3385 81.4642 20.582C80.7849 19.8254 80.4453 18.8704 80.4453 17.7194C80.4453 16.5149 80.7947 15.5283 81.4959 14.7612C82.1953 13.9933 83.1394 13.6094 84.3264 13.6094C85.4703 13.6094 86.3908 13.9877 87.0855 14.745C87.7502 15.4797 88.0816 16.4282 88.0816 17.5906ZM86.2845 17.6465C86.2845 16.9296 86.1309 16.3148 85.8197 15.802C85.4565 15.1816 84.9374 14.8721 84.2647 14.8721C83.5684 14.8721 83.0396 15.1824 82.6764 15.802C82.3651 16.3156 82.2116 16.9401 82.2116 17.6789C82.2116 18.3958 82.3651 19.0105 82.6764 19.5224C83.0509 20.1429 83.5741 20.4523 84.2493 20.4523C84.9106 20.4523 85.4298 20.1364 85.8043 19.5063C86.1236 18.9838 86.2845 18.3625 86.2845 17.6465Z" fill="#444444" fill-opacity="0.6"/>
<path d="M93.7102 15.2877C93.5388 15.2562 93.356 15.2399 93.1643 15.2399C92.5549 15.2399 92.0837 15.4692 91.7521 15.9284C91.4638 16.3334 91.3192 16.8454 91.3192 17.4634V21.5418H89.5878L89.6041 16.2168C89.6041 15.321 89.5821 14.5053 89.5391 13.7697H91.0478L91.1112 15.2569H91.1592C91.3419 14.7459 91.6303 14.3343 92.0252 14.0257C92.4112 13.7479 92.8279 13.6094 93.2771 13.6094C93.4373 13.6094 93.5819 13.6207 93.7102 13.641V15.2877Z" fill="#444444" fill-opacity="0.6"/>
<path d="M101.456 17.2866C101.456 17.5961 101.436 17.8569 101.393 18.0699H96.1961C96.2164 18.8377 96.4674 19.4251 96.9501 19.83C97.3879 20.1921 97.9543 20.3736 98.6497 20.3736C99.4191 20.3736 100.121 20.2512 100.752 20.0058L101.024 21.2047C100.286 21.5254 99.4151 21.685 98.41 21.685C97.2012 21.685 96.2522 21.3302 95.5616 20.6214C94.8727 19.9127 94.5273 18.961 94.5273 17.7669C94.5273 16.5949 94.8482 15.6188 95.4908 14.8404C96.1637 14.0093 97.0728 13.5938 98.2167 13.5938C99.3403 13.5938 100.191 14.0093 100.769 14.8404C101.226 15.5006 101.456 16.317 101.456 17.2866ZM99.8042 16.8386C99.8155 16.3267 99.7027 15.8845 99.4679 15.511C99.168 15.0307 98.7074 14.791 98.0875 14.791C97.5212 14.791 97.0606 15.025 96.7088 15.4948C96.4204 15.8682 96.2489 16.3163 96.1961 16.8379H99.8042V16.8386Z" fill="#444444" fill-opacity="0.6"/>
</g>
<defs>
<clipPath id="clip0_760_15">
<rect width="112" height="34" fill="white"/>
</clipPath>
</defs>
</svg>
