<svg width="124" height="48" viewBox="0 0 124 48" fill="none" xmlns="http://www.w3.org/2000/svg">
<g clip-path="url(#clip0_760_34)">
<path d="M84.6961 27.2627L85.934 27.6367C85.8515 27.9899 85.7277 28.2808 85.542 28.5094C85.3563 28.738 85.15 28.925 84.8817 29.0289C84.6135 29.1536 84.2834 29.2159 83.8708 29.2159C83.3756 29.2159 82.9836 29.1536 82.6535 29.0081C82.344 28.8627 82.0758 28.6133 81.8488 28.2393C81.6218 27.886 81.498 27.4081 81.498 26.8471C81.498 26.099 81.7044 25.5172 82.0964 25.1016C82.4884 24.686 83.0661 24.499 83.7882 24.499C84.3659 24.499 84.7992 24.6237 85.1293 24.8523C85.4594 25.0808 85.707 25.4341 85.8515 25.9328L84.6135 26.2029C84.5723 26.0575 84.531 25.9536 84.4691 25.8912C84.3866 25.7873 84.304 25.7042 84.1802 25.6419C84.0564 25.5795 83.9327 25.5588 83.8089 25.5588C83.4994 25.5588 83.2518 25.6834 83.0867 25.9536C82.9629 26.1406 82.901 26.4523 82.901 26.8471C82.901 27.3458 82.9836 27.699 83.128 27.886C83.2724 28.073 83.4994 28.1769 83.7676 28.1769C84.0358 28.1769 84.2421 28.0938 84.3659 27.9484C84.531 27.7614 84.6342 27.5536 84.6961 27.2627Z" fill="#444444" fill-opacity="0.6"/>
<path d="M86.4277 26.8464C86.4277 26.0983 86.6341 25.5165 87.0467 25.1009C87.4593 24.6853 88.0371 24.4775 88.7798 24.4775C89.5432 24.4775 90.1209 24.6853 90.5336 25.0801C90.9462 25.4957 91.1525 26.0568 91.1525 26.8048C91.1525 27.3451 91.07 27.7814 90.8843 28.1139C90.6986 28.4464 90.451 28.7165 90.1003 28.9035C89.7702 29.0905 89.3369 29.1944 88.8417 29.1944C88.3259 29.1944 87.9133 29.1113 87.5625 28.9451C87.2324 28.7788 86.9642 28.5295 86.7372 28.1555C86.5103 27.7814 86.4277 27.3866 86.4277 26.8464ZM87.8307 26.8464C87.8307 27.3035 87.9133 27.636 88.0783 27.8438C88.2434 28.0516 88.4703 28.1555 88.7798 28.1555C89.0893 28.1555 89.3163 28.0516 89.4813 27.8646C89.6464 27.6568 89.7289 27.3035 89.7289 26.8048C89.7289 26.3684 89.6464 26.0568 89.4607 25.8697C89.2956 25.662 89.048 25.5788 88.7592 25.5788C88.4703 25.5788 88.2434 25.6827 88.0783 25.8905C87.9133 26.0568 87.8307 26.3892 87.8307 26.8464Z" fill="#444444" fill-opacity="0.6"/>
<path d="M91.8752 24.5615H93.7115L94.413 27.3459L95.1145 24.5615H96.9508V29.133H95.7954V25.642L94.9082 29.133H93.8766L92.9894 25.642V29.133H91.834V24.5615H91.8752Z" fill="#444444" fill-opacity="0.6"/>
<path d="M97.8594 24.5615H100.191C100.707 24.5615 101.078 24.6862 101.326 24.9356C101.573 25.1849 101.697 25.5174 101.697 25.9745C101.697 26.4317 101.553 26.8057 101.284 27.055C101.016 27.3252 100.583 27.4498 100.026 27.4498H99.2624V29.1537H97.8594V24.5615ZM99.2624 26.5148H99.6131C99.8813 26.5148 100.067 26.4732 100.191 26.3693C100.294 26.2654 100.356 26.1615 100.356 26.0161C100.356 25.8706 100.315 25.7459 100.211 25.642C100.108 25.5381 99.9432 25.4966 99.675 25.4966H99.283V26.5148H99.2624Z" fill="#444444" fill-opacity="0.6"/>
<path d="M102.439 24.5615H103.842V28.0109H106.029V29.133H102.439V24.5615Z" fill="#444444" fill-opacity="0.6"/>
<path d="M106.73 24.5615H108.133V29.133H106.73V24.5615Z" fill="#444444" fill-opacity="0.6"/>
<path d="M111.931 28.3634H110.342L110.115 29.1115H108.691L110.404 24.54H111.931L113.643 29.1115H112.178L111.931 28.3634ZM111.642 27.3868L111.147 25.7452L110.651 27.3868H111.642Z" fill="#444444" fill-opacity="0.6"/>
<path d="M114.076 24.5615H115.376L117.088 27.0966V24.5615H118.409V29.133H117.088L115.397 26.6187V29.133H114.076V24.5615Z" fill="#444444" fill-opacity="0.6"/>
<path d="M119.027 24.5615H123.298V25.6836H121.875V29.133H120.472V25.6836H119.048V24.5615H119.027Z" fill="#444444" fill-opacity="0.6"/>
<path fill-rule="evenodd" clip-rule="evenodd" d="M71.8838 30.2336L67.8193 31.5219C68.6239 30.0881 69.5936 28.5089 70.5633 27.2829L71.8838 30.2336ZM58.4728 0.166016L66.4369 18.0361C65.5315 19.2807 62.8194 23.0536 60.267 26.7505V14.888H53.0457V30.7691C52.0497 30.0897 51.0017 29.6118 49.9921 29.4406V28.6439C49.9921 28.5816 49.9509 28.5608 49.9096 28.6024C49.9096 28.6024 49.1256 29.2258 45.7006 29.579C44.7309 29.6829 44.2564 29.6413 43.9056 29.579C39.0364 28.7478 38.8094 25.1738 38.8094 25.1738C38.8094 25.1395 38.8032 25.0926 38.7976 25.0504C38.793 25.016 38.7888 24.9847 38.7888 24.966V23.5946C38.7888 23.5322 38.7888 23.4284 38.8094 23.3868C38.8094 23.3868 39.1396 19.5426 43.9056 19.127H45.7006C47.7845 19.3971 49.4763 20.4361 49.4763 20.4361C49.5382 20.4568 49.5795 20.4361 49.5795 20.3737V15.5529C49.5795 15.4906 49.5382 15.4283 49.4763 15.3867C49.4763 15.3867 48.5272 14.7633 45.6387 14.5971C45.4943 14.514 42.9565 14.4932 42.2757 14.5971C31.7532 15.4491 31.3612 23.1167 31.3612 23.4491V25.3193C31.3612 25.5478 31.3612 33.3816 42.2757 34.0673C43.1514 34.1352 44.7009 34.0922 45.3528 34.0742C45.4996 34.0701 45.6008 34.0673 45.6387 34.0673L45.6737 34.0673C45.9036 35.353 46.5348 36.7322 47.4139 38.005L16.3211 47.8751L0.166016 3.49069L58.4728 0.166016ZM49.9921 31.5689C50.1397 31.5371 50.2514 31.5219 50.3024 31.5219C50.5985 31.502 50.8756 31.5962 50.9533 31.6226L50.9627 31.6258C51.6504 31.9859 52.366 32.5012 53.0457 33.0633C53.3751 33.3357 53.696 33.6191 54.0013 33.9011C55.4284 35.2196 56.5128 36.5089 56.5128 36.5089C56.5128 36.5089 56.8016 36.592 56.8635 36.5089C57.357 35.7552 57.9001 34.8732 58.4868 33.9011C58.8425 33.3115 59.2143 32.6888 59.6008 32.0415L59.6041 32.0359C59.8206 31.6734 60.0416 31.3032 60.267 30.9268C64.9411 23.121 71.4951 12.6415 77.8465 12.8206C79.1876 12.8206 79.1876 13.2569 79.1876 13.2569C79.1876 13.2569 79.1876 13.34 79.1257 13.4232C79.0845 13.4855 79.0226 13.5478 78.9607 13.5894C73.1674 17.7475 67.5657 27.8426 63.5942 34.9998C61.3139 39.1091 59.571 42.25 58.6379 42.7426C57.8951 43.0751 57.4412 43.0751 56.8635 43.0751C54.8461 43.0751 54.1901 42.5233 53.8233 42.2147C53.7812 42.1793 53.7429 42.1471 53.7068 42.1193C51.3341 39.9167 48.4662 35.9271 47.8266 34.805C47.744 34.6595 47.7028 34.3686 47.7028 34.3063L47.7027 34.2312V34.2302C47.7027 34.11 47.7026 33.9991 47.7047 33.895C49.0553 33.6683 49.889 33.2985 49.889 33.2985C49.9509 33.2777 49.9921 33.2154 49.9921 33.153V31.5689ZM11.4098 33.9426C11.3479 33.9426 11.3066 33.9011 11.3066 33.8387V14.9919C11.3066 14.9296 11.3479 14.888 11.4098 14.888H20.5292C22.8401 14.7841 29.8963 15.4283 29.8963 21.4336C29.8963 29.018 18.6517 28.2076 18.6517 28.2076C18.5898 28.2076 18.5485 28.2491 18.5485 28.3115V33.8387C18.5485 33.9011 18.5073 33.9426 18.4454 33.9426H11.4098ZM18.4247 23.9894V19.0231H20.1578C20.1578 19.0231 22.6544 19.127 22.8607 20.8517C22.902 20.9764 22.902 21.8284 22.8607 21.8699C22.5306 23.8855 20.3642 23.9894 20.3642 23.9894H18.4247ZM56.6564 13.0802C59.091 13.0802 61.0717 11.2101 61.0717 8.88282C61.0717 6.55555 59.091 4.68542 56.6564 4.68542C54.2218 4.68542 52.2411 6.55555 52.2411 8.88282C52.2411 11.1893 54.2218 13.0802 56.6564 13.0802Z" fill="#444444" fill-opacity="0.6"/>
<path d="M49.889 33.2985C49.9509 33.2777 49.9921 33.2154 49.9921 33.153V31.5689C49.5432 31.6656 48.7616 31.9152 48.3424 32.353C47.7983 32.9352 47.7166 33.3058 47.7047 33.895C49.0553 33.6683 49.889 33.2985 49.889 33.2985Z" fill="#444444" fill-opacity="0.6"/>
<path d="M81.3535 7.16895H88.1003C89.4414 7.16895 90.5143 7.35596 91.3189 7.7092C92.1442 8.08323 92.8251 8.60271 93.3409 9.26765C93.8773 9.95336 94.2693 10.743 94.4963 11.6365C94.7439 12.53 94.8677 13.4858 94.8677 14.504C94.8677 16.0832 94.682 17.3092 94.3312 18.1819C93.9805 19.0547 93.4853 19.7819 92.8457 20.3845C92.2061 20.9663 91.5252 21.3612 90.8031 21.5689C89.8128 21.8391 88.9049 21.9637 88.1003 21.9637H81.3535V7.16895ZM85.8926 10.5144V18.5975H87.0068C87.9558 18.5975 88.6367 18.4936 89.0287 18.2858C89.4207 18.078 89.7509 17.704 89.9778 17.1845C90.2048 16.665 90.3286 15.7923 90.3286 14.6079C90.3286 13.0287 90.081 11.9689 89.5652 11.3871C89.0494 10.8053 88.2241 10.5144 87.0274 10.5144H85.8926Z" fill="#444444" fill-opacity="0.6"/>
<path d="M96.125 17.0803L100.458 16.8101C100.561 17.5166 100.747 18.0569 101.035 18.4309C101.51 19.0335 102.17 19.3244 103.037 19.3244C103.676 19.3244 104.192 19.179 104.543 18.8673C104.894 18.5556 105.079 18.2023 105.079 17.8075C105.079 17.4335 104.914 17.0803 104.584 16.7686C104.254 16.4569 103.47 16.1867 102.253 15.9166C100.251 15.4595 98.8485 14.8569 97.9819 14.1088C97.1153 13.3608 96.7027 12.4049 96.7027 11.2413C96.7027 10.4725 96.9297 9.76597 97.3629 9.08026C97.7962 8.39454 98.4564 7.87506 99.3436 7.48026C100.231 7.08545 101.427 6.89844 102.954 6.89844C104.832 6.89844 106.276 7.25168 107.246 7.95818C108.236 8.66467 108.814 9.78675 109 11.3244L104.708 11.5738C104.584 10.9088 104.357 10.4309 103.986 10.1192C103.615 9.80753 103.119 9.66207 102.48 9.66207C101.943 9.66207 101.551 9.76597 101.283 9.99454C101.015 10.2231 100.891 10.4932 100.891 10.8257C100.891 11.0543 100.994 11.2829 101.221 11.4699C101.427 11.6569 101.943 11.8439 102.748 12.0101C104.729 12.4465 106.152 12.8829 107.019 13.3192C107.885 13.7556 108.504 14.3166 108.896 14.9608C109.288 15.6049 109.474 16.353 109.474 17.1634C109.474 18.1192 109.206 18.9919 108.69 19.7816C108.174 20.5919 107.431 21.1945 106.503 21.6101C105.575 22.0257 104.378 22.2335 102.954 22.2335C100.458 22.2335 98.7247 21.7556 97.7549 20.779C96.8059 19.8023 96.2694 18.5764 96.125 17.0803Z" fill="#444444" fill-opacity="0.6"/>
<path d="M110.631 17.0803L114.964 16.8101C115.067 17.5166 115.252 18.0569 115.541 18.4309C116.016 19.0335 116.676 19.3244 117.543 19.3244C118.182 19.3244 118.698 19.179 119.049 18.8673C119.4 18.5556 119.585 18.2023 119.585 17.8075C119.585 17.4335 119.42 17.0803 119.09 16.7686C118.76 16.4569 117.976 16.1867 116.759 15.9166C114.757 15.4595 113.354 14.8569 112.488 14.1088C111.642 13.3608 111.209 12.4049 111.209 11.2413C111.209 10.4725 111.436 9.76597 111.869 9.08026C112.302 8.39454 112.962 7.87506 113.849 7.48026C114.737 7.08545 115.933 6.89844 117.46 6.89844C119.338 6.89844 120.782 7.25168 121.752 7.95818C122.742 8.66467 123.32 9.78675 123.505 11.3244L119.214 11.5738C119.09 10.9088 118.863 10.4309 118.492 10.1192C118.12 9.80753 117.625 9.66207 116.986 9.66207C116.449 9.66207 116.057 9.76597 115.789 9.99454C115.521 10.2231 115.397 10.4932 115.397 10.8257C115.397 11.0543 115.5 11.2829 115.727 11.4699C115.933 11.6569 116.449 11.8439 117.254 12.0101C119.235 12.4465 120.658 12.8829 121.525 13.3192C122.391 13.7556 123.01 14.3166 123.402 14.9608C123.794 15.6049 123.98 16.353 123.98 17.1634C123.98 18.1192 123.712 18.9919 123.196 19.7816C122.68 20.5919 121.937 21.1945 121.009 21.6101C120.08 22.0257 118.884 22.2335 117.46 22.2335C114.964 22.2335 113.231 21.7556 112.261 20.779C111.291 19.8023 110.755 18.5764 110.631 17.0803Z" fill="#444444" fill-opacity="0.6"/>
</g>
<defs>
<clipPath id="clip0_760_34">
<rect width="124" height="48" fill="white"/>
</clipPath>
</defs>
</svg>
