<svg width="112" height="34" viewBox="0 0 112 34" fill="none" xmlns="http://www.w3.org/2000/svg">
<g clip-path="url(#clip0_760_27)">
<path d="M3.5443 0.5H108.456C110.112 0.5 111.5 1.92617 111.5 3.74388V30.2561C111.5 32.0738 110.112 33.5 108.456 33.5H3.5443C1.88844 33.5 0.5 32.0738 0.5 30.2561V3.74388C0.5 1.92617 1.88844 0.5 3.5443 0.5Z" stroke="#444444" stroke-opacity="0.6"/>
<path d="M56.6157 13.6986C55.8997 13.702 55.2008 13.9167 54.6071 14.3158C54.0133 14.7148 53.5515 15.2803 53.2798 15.9408C53.0082 16.6013 52.9388 17.3272 53.0805 18.027C53.2223 18.7266 53.5688 19.3689 54.0763 19.8725C54.5838 20.376 55.2296 20.7184 55.9321 20.8566C56.6346 20.9946 57.3624 20.922 58.0235 20.6481C58.6847 20.3741 59.2497 19.911 59.6472 19.3173C60.0447 18.7235 60.2568 18.0256 60.2568 17.3117C60.2637 16.8338 60.1742 16.3596 59.9934 15.917C59.8127 15.4743 59.5445 15.0724 59.2048 14.7354C58.865 14.3983 58.4607 14.1327 58.0159 13.9546C57.5711 13.7765 57.095 13.6895 56.6157 13.6986ZM56.6157 19.5051C56.1754 19.5358 55.7359 19.4336 55.3546 19.2121C54.9732 18.9905 54.6674 18.6596 54.4772 18.2625C54.2869 17.8654 54.2209 17.4204 54.2875 16.9853C54.3543 16.5504 54.5508 16.1454 54.8514 15.8232C55.1522 15.5009 55.5431 15.2763 55.9735 15.1786C56.4039 15.0807 56.8538 15.1143 57.2648 15.2749C57.6758 15.4354 58.0289 15.7156 58.2781 16.0788C58.5273 16.442 58.6611 16.8716 58.6621 17.3117C58.676 17.5906 58.6335 17.8693 58.5375 18.1316C58.4414 18.3938 58.2936 18.6343 58.103 18.8387C57.9122 19.0431 57.6824 19.2074 57.427 19.3219C57.1716 19.4363 56.8957 19.4986 56.6157 19.5051ZM48.6771 13.6986C47.9607 13.7003 47.261 13.9136 46.6661 14.3117C46.0712 14.7098 45.6081 15.2746 45.3351 15.9349C45.0621 16.5953 44.9916 17.3214 45.1323 18.0218C45.2732 18.722 45.619 19.365 46.1261 19.8694C46.6333 20.374 47.2791 20.7173 47.9817 20.856C48.6845 20.9947 49.4127 20.9226 50.0745 20.6489C50.7361 20.3751 51.3016 19.912 51.6995 19.3181C52.0973 18.7242 52.3096 18.026 52.3096 17.3117C52.3166 16.8338 52.227 16.3596 52.0462 15.917C51.8655 15.4743 51.5973 15.0724 51.2576 14.7354C50.9178 14.3983 50.5136 14.1327 50.0687 13.9546C49.624 13.7765 49.1478 13.6895 48.6686 13.6986H48.6771ZM48.6771 19.5051C48.2365 19.5375 47.7964 19.4369 47.4139 19.2164C47.0316 18.9961 46.7245 18.6658 46.5329 18.269C46.3413 17.8722 46.274 17.427 46.3396 16.9915C46.4054 16.5559 46.6011 16.1502 46.9012 15.8272C47.2014 15.504 47.5922 15.2784 48.0229 15.1799C48.4534 15.0813 48.9038 15.1143 49.3153 15.2746C49.7267 15.4347 50.0804 15.7147 50.33 16.0781C50.5797 16.4413 50.7138 16.8713 50.7151 17.3117C50.7288 17.5906 50.6865 17.8693 50.5903 18.1316C50.4942 18.3938 50.3466 18.6343 50.1558 18.8387C49.9651 19.0431 49.7352 19.2074 49.4798 19.3219C49.2244 19.4363 48.9485 19.4986 48.6686 19.5051H48.6771ZM39.2207 14.8123V16.3425H42.9043C42.8466 17.0632 42.546 17.7434 42.0516 18.2723C41.6831 18.6466 41.24 18.9398 40.7511 19.1331C40.262 19.3263 39.7378 19.4154 39.2122 19.3946C38.1266 19.3946 37.0856 18.9646 36.3181 18.1993C35.5504 17.4341 35.1193 16.3961 35.1193 15.3139C35.1193 14.2316 35.5504 13.1937 36.3181 12.4284C37.0856 11.6632 38.1266 11.2332 39.2122 11.2332C40.2506 11.2164 41.2533 11.6108 42.0005 12.3299L43.0835 11.2503C42.579 10.741 41.9772 10.338 41.3137 10.0649C40.6502 9.7918 39.9385 9.65429 39.2207 9.6605C38.4626 9.63108 37.7065 9.75454 36.9974 10.0235C36.2884 10.2924 35.641 10.7013 35.0942 11.2256C34.5476 11.7499 34.1126 12.3789 33.8155 13.0748C33.5183 13.7707 33.3652 14.5192 33.3652 15.2756C33.3652 16.032 33.5183 16.7805 33.8155 17.4764C34.1126 18.1723 34.5476 18.8014 35.0942 19.3256C35.641 19.8499 36.2884 20.2588 36.9974 20.5278C37.7065 20.7968 38.4626 20.9201 39.2207 20.8907C39.9506 20.9236 40.679 20.8004 41.357 20.5291C42.0352 20.2578 42.647 19.8448 43.1517 19.318C44.0449 18.3394 44.522 17.053 44.4818 15.7305C44.4845 15.4083 44.456 15.0865 44.3966 14.7697L39.2207 14.8123ZM77.8564 16.0025C77.6341 15.3502 77.2183 14.7806 76.664 14.3693C76.1097 13.9578 75.4432 13.724 74.7527 13.6986C74.2862 13.6977 73.8245 13.7922 73.3962 13.9762C72.9678 14.1603 72.5819 14.4299 72.2622 14.7686C71.9426 15.1071 71.6959 15.5075 71.5377 15.945C71.3792 16.3824 71.3126 16.8476 71.3418 17.3117C71.3315 17.7868 71.4172 18.2592 71.5941 18.7005C71.7709 19.142 72.0352 19.5432 72.3711 19.8805C72.7069 20.2176 73.1075 20.484 73.549 20.6633C73.9905 20.8428 74.4636 20.9318 74.9401 20.9247C75.5367 20.928 76.1247 20.7837 76.6515 20.5047C77.1783 20.2258 77.6273 19.821 77.9587 19.3264L76.7224 18.4764C76.5378 18.783 76.2765 19.0368 75.9641 19.2127C75.6517 19.3884 75.2989 19.4804 74.9401 19.4795C74.5708 19.4936 74.2059 19.3965 73.8925 19.2009C73.5792 19.0054 73.3323 18.7203 73.1836 18.3829L78.0354 16.3851L77.8564 16.0025ZM72.9108 17.2097C72.8936 16.9467 72.929 16.6829 73.0153 16.4339C73.1015 16.1848 73.2367 15.9553 73.413 15.759C73.5893 15.5626 73.8031 15.4034 74.042 15.2905C74.2807 15.1774 74.5397 15.1132 74.8037 15.1014C75.0789 15.0833 75.3531 15.1462 75.5927 15.2822C75.8321 15.4182 76.0264 15.6215 76.151 15.8665L72.9108 17.2097ZM68.9713 20.7123H70.5658V10.0856H68.9713V20.7123ZM66.3621 14.5062H66.3024C66.0621 14.2384 65.7677 14.0242 65.4385 13.8777C65.1093 13.7311 64.7528 13.6556 64.3924 13.6561C63.4605 13.7012 62.5818 14.102 61.9383 14.7753C61.2948 15.4489 60.9358 16.3433 60.9358 17.2734C60.9358 18.2036 61.2948 19.0981 61.9383 19.7715C62.5818 20.4449 63.4605 20.8457 64.3924 20.8907C64.7537 20.8968 65.112 20.8239 65.4419 20.677C65.772 20.5301 66.0657 20.3129 66.3024 20.0406H66.3535V20.5592C66.3535 21.9449 65.6117 22.6846 64.4179 22.6846C64.0203 22.6752 63.6345 22.5483 63.3096 22.3196C62.9845 22.0911 62.7352 21.7711 62.5931 21.4009L61.2033 21.9789C61.4649 22.6134 61.9107 23.1555 62.4835 23.5357C63.0562 23.9159 63.7298 24.1169 64.4179 24.1127C66.2853 24.1127 67.8287 23.0161 67.8287 20.3467V13.9112H66.3621V14.5062ZM64.5373 19.5051C63.9873 19.4567 63.4754 19.2046 63.1024 18.7987C62.7296 18.3927 62.5226 17.8622 62.5226 17.3117C62.5226 16.7612 62.7296 16.2307 63.1024 15.8247C63.4754 15.4187 63.9873 15.1667 64.5373 15.1183C64.81 15.1323 65.0772 15.2005 65.3231 15.319C65.5688 15.4375 65.7884 15.6038 65.9689 15.8082C66.1492 16.0127 66.2867 16.251 66.3733 16.5092C66.4598 16.7674 66.4938 17.0403 66.4729 17.3117C66.4962 17.5843 66.4637 17.8589 66.3775 18.1187C66.2913 18.3783 66.1532 18.618 65.9715 18.823C65.7897 19.028 65.5683 19.1942 65.3202 19.3114C65.0723 19.4287 64.8031 19.4946 64.5288 19.5051H64.5373ZM85.326 10.0856H81.5145V20.7123H83.1091V16.6826H85.3345C85.7891 16.7152 86.2454 16.6541 86.675 16.503C87.1047 16.3519 87.4987 16.1144 87.8321 15.8048C88.1656 15.4953 88.4317 15.1206 88.6135 14.7042C88.7954 14.2877 88.8892 13.8383 88.8892 13.3841C88.8892 12.9298 88.7954 12.4805 88.6135 12.064C88.4317 11.6475 88.1656 11.2728 87.8321 10.9633C87.4987 10.6538 87.1047 10.4162 86.675 10.2652C86.2454 10.1142 85.7891 10.053 85.3345 10.0856H85.326ZM85.326 15.1863H83.1004V11.5648H85.3601C85.8452 11.5648 86.3105 11.7569 86.6534 12.0989C86.9965 12.4409 87.1892 12.9047 87.1892 13.3883C87.1892 13.872 86.9965 14.3358 86.6534 14.6778C86.3105 15.0198 85.8452 15.2119 85.3601 15.2119L85.326 15.1863ZM95.1576 13.6561C94.5772 13.6215 93.9992 13.7568 93.4947 14.0453C92.9902 14.3337 92.5814 14.7628 92.3182 15.2799L93.7337 15.8665C93.8733 15.61 94.0845 15.3995 94.3419 15.2606C94.5992 15.1218 94.8916 15.0605 95.1833 15.0843C95.3857 15.0608 95.5908 15.0776 95.7866 15.134C95.9824 15.1902 96.165 15.2849 96.3237 15.4123C96.4825 15.5397 96.6143 15.6973 96.7112 15.8759C96.8082 16.0547 96.8685 16.2508 96.8887 16.4531V16.5636C96.3766 16.2933 95.8053 16.1531 95.2258 16.1556C93.6996 16.1556 92.1562 17.0057 92.1562 18.5444C92.1711 18.8725 92.2522 19.1942 92.394 19.4906C92.5361 19.787 92.7361 20.0521 92.9826 20.27C93.2289 20.4879 93.5167 20.6545 93.8288 20.7596C94.1409 20.8648 94.471 20.9065 94.7995 20.8823C95.2011 20.911 95.603 20.8315 95.963 20.652C96.3232 20.4724 96.6281 20.1997 96.8459 19.8621H96.8972V20.7123H98.4321V16.6231C98.4321 14.7613 97.0166 13.6816 95.2002 13.6816L95.1576 13.6561ZM94.9615 19.4795C94.4413 19.4795 93.7166 19.216 93.7166 18.5784C93.7166 17.7283 94.6205 17.4477 95.422 17.4477C95.9285 17.4352 96.4291 17.5586 96.8715 17.8048C96.8183 18.265 96.5999 18.6906 96.2567 19.0031C95.9137 19.3154 95.4687 19.4937 95.0041 19.5051L94.9615 19.4795ZM104.026 13.9112L102.201 18.5189H102.15L100.257 13.9112H98.5513L101.391 20.3552L99.7707 23.9342H101.434L105.799 13.9112H104.026ZM89.6919 20.7123H91.2864V10.0856H89.6919V20.7123Z" fill="#444444" fill-opacity="0.6"/>
<path d="M8.25114 27.6355L18.6972 16.8334L8.25988 6.05078C7.98111 6.21866 7.80859 6.60735 7.80859 7.11614V26.5805C7.81232 27.0892 7.9786 27.4495 8.25114 27.6355Z" fill="#444444" fill-opacity="0.6"/>
<path d="M19.0708 16.5367L22.1824 13.3188L9.51116 6.13378C9.2978 6.00559 9.05543 5.93787 8.80859 5.9375L19.0697 16.5354L19.0708 16.5367Z" fill="#444444" fill-opacity="0.6"/>
<path d="M19.0709 17.1328L8.77734 27.7773C9.0357 27.7817 9.29018 27.712 9.51242 27.5758L22.2087 20.3716L19.0709 17.1328Z" fill="#444444" fill-opacity="0.6"/>
<path d="M26.7726 15.9267L22.556 13.5312L19.3594 16.837L22.5797 20.1635L26.7713 17.7745C27.6627 17.2671 27.6627 16.4316 26.7726 15.9267Z" fill="#444444" fill-opacity="0.6"/>
</g>
<defs>
<clipPath id="clip0_760_27">
<rect width="112" height="34" fill="white"/>
</clipPath>
</defs>
</svg>
